<?xml version="1.0" encoding="UTF-8"?>
<svg xmlns="http://www.w3.org/2000/svg" xmlns:xlink="http://www.w3.org/1999/xlink" width="512px" height="512px" viewBox="0 0 512 512" version="1.1">
<defs>
<linearGradient id="linear0" gradientUnits="userSpaceOnUse" x1="124.7352" y1="241.5877" x2="1071.2878" y2="1188.1633" gradientTransform="matrix(0.375204,0,0,-0.375204,-0.0000129949,519.951672)">
<stop offset="0" style="stop-color:rgb(25.490196%,87.45098%,81.568627%);stop-opacity:1;"/>
<stop offset="1" style="stop-color:rgb(93.333333%,51.372549%,93.72549%);stop-opacity:1;"/>
</linearGradient>
</defs>
<g id="surface1">
<path style=" stroke:none;fill-rule:nonzero;fill:url(#linear0);" d="M 1.113281 189.007812 C 2.238281 191.007812 4.109375 192.480469 6.3125 193.101562 L 123.265625 225.707031 C 124.027344 225.925781 124.816406 226.035156 125.605469 226.03125 C 129.496094 226.023438 132.90625 223.4375 133.953125 219.691406 L 138.605469 202.980469 L 205.84375 221.730469 L 219.011719 268.5625 C 219.230469 269.191406 219.523438 269.796875 219.878906 270.367188 C 205.539062 289.265625 209.242188 316.210938 228.144531 330.550781 C 231.5625 333.140625 235.34375 335.203125 239.375 336.675781 L 137.203125 485.992188 L 124.429688 485.992188 C 119.636719 485.992188 115.753906 489.878906 115.753906 494.664062 C 115.753906 499.457031 119.636719 503.339844 124.429688 503.339844 L 159.117188 503.339844 C 163.910156 503.339844 167.789062 499.457031 167.789062 494.664062 C 167.789062 489.878906 163.910156 485.992188 159.117188 485.992188 L 158.25 485.992188 L 245.84375 357.925781 L 245.84375 485.992188 L 237.171875 485.992188 C 232.382812 485.992188 228.5 489.878906 228.5 494.664062 C 228.5 499.457031 232.382812 503.339844 237.171875 503.339844 L 271.863281 503.339844 C 276.652344 503.339844 280.535156 499.457031 280.535156 494.664062 C 280.535156 489.878906 276.652344 485.992188 271.863281 485.992188 L 263.191406 485.992188 L 263.191406 357.925781 L 350.785156 485.992188 L 349.917969 485.992188 C 345.125 485.992188 341.246094 489.878906 341.246094 494.664062 C 341.246094 499.457031 345.125 503.339844 349.917969 503.339844 L 384.609375 503.339844 C 389.398438 503.339844 393.28125 499.457031 393.28125 494.664062 C 393.28125 489.878906 389.398438 485.992188 384.609375 485.992188 L 371.832031 485.992188 L 269.652344 336.660156 C 291.949219 328.511719 303.421875 303.835938 295.273438 281.539062 C 293.855469 277.648438 291.878906 273.984375 289.40625 270.660156 L 296.085938 246.894531 L 339.136719 258.898438 C 339.890625 259.121094 340.675781 259.230469 341.460938 259.230469 C 342.203125 259.230469 342.941406 259.132812 343.65625 258.941406 C 344.378906 258.738281 345.074219 258.449219 345.726562 258.074219 L 385.324219 235.734375 L 423.636719 246.460938 L 421.300781 254.8125 C 420.027344 259.433594 422.734375 264.210938 427.347656 265.484375 C 427.355469 265.484375 427.363281 265.488281 427.371094 265.488281 L 477.5 279.480469 C 478.257812 279.695312 479.042969 279.800781 479.832031 279.800781 C 483.726562 279.796875 487.132812 277.199219 488.175781 273.453125 L 511.480469 189.910156 C 512.761719 185.296875 510.070312 180.523438 505.460938 179.234375 L 455.324219 165.257812 C 450.714844 163.980469 445.9375 166.671875 444.652344 171.28125 L 442.316406 179.632812 L 404.011719 168.945312 L 381.675781 129.339844 C 381.167969 128.472656 380.507812 127.699219 379.734375 127.058594 C 379.507812 126.867188 379.257812 126.71875 379.003906 126.546875 C 378.367188 126.105469 377.675781 125.753906 376.949219 125.496094 C 376.765625 125.433594 376.636719 125.296875 376.453125 125.242188 L 295.972656 102.800781 L 310.605469 92.394531 L 338.3125 100.121094 C 339.070312 100.335938 339.855469 100.441406 340.644531 100.441406 C 344.539062 100.441406 347.949219 97.847656 348.996094 94.105469 L 358.3125 60.6875 C 359.59375 56.074219 356.898438 51.300781 352.292969 50.011719 L 268.707031 26.660156 C 266.488281 26.03125 264.117188 26.320312 262.117188 27.460938 C 260.117188 28.585938 258.644531 30.457031 258.019531 32.667969 L 248.707031 66.097656 C 247.425781 70.707031 250.117188 75.484375 254.726562 76.773438 L 289.105469 86.363281 L 274.46875 96.816406 L 175.90625 69.324219 L 180.574219 52.613281 C 181.851562 47.996094 179.144531 43.21875 174.527344 41.941406 C 174.519531 41.941406 174.511719 41.9375 174.503906 41.9375 L 57.59375 9.316406 C 52.984375 8.03125 48.199219 10.726562 46.910156 15.335938 L 0.3125 182.453125 C -0.296875 184.652344 -0.0078125 187.011719 1.113281 189.007812 Z M 254.519531 322.1875 C 240.148438 322.1875 228.5 310.535156 228.5 296.164062 C 228.5 281.796875 240.148438 270.148438 254.519531 270.148438 C 268.886719 270.148438 280.535156 281.796875 280.535156 296.164062 C 280.535156 310.535156 268.886719 322.1875 254.519531 322.1875 Z M 225.429688 227.183594 L 279.382812 242.242188 L 274.910156 258.136719 C 262.25 251.03125 246.800781 251.03125 234.148438 258.136719 Z M 458.976562 184.292969 L 492.410156 193.605469 L 473.765625 260.445312 L 440.339844 251.121094 Z M 404.203125 187.011719 L 437.613281 196.324219 L 428.292969 229.742188 L 394.886719 220.4375 Z M 376.800781 156.101562 L 388.847656 177.464844 L 376.800781 220.664062 L 355.441406 232.753906 L 355.734375 231.6875 Z M 267.734375 62.40625 L 272.402344 45.6875 L 339.242188 64.339844 L 334.578125 81.050781 Z M 363.40625 139.589844 L 335.441406 239.871094 L 143.300781 186.273438 L 171.261719 86.027344 Z M 94.707031 37.667969 L 161.539062 56.304688 L 119.597656 206.679688 L 52.765625 188.042969 Z M 61.292969 28.34375 L 78.003906 33.011719 L 36.070312 183.378906 L 19.347656 178.722656 Z M 245.84375 287.492188 L 263.191406 287.492188 L 263.191406 304.835938 L 245.84375 304.835938 Z M 245.84375 287.492188 "/>
</g>
</svg>
