<?xml version="1.0" encoding="UTF-8"?>
<svg xmlns="http://www.w3.org/2000/svg" xmlns:xlink="http://www.w3.org/1999/xlink" width="192px" height="192px" viewBox="0 0 192 192" version="1.1">
<defs>
<linearGradient id="linear0" gradientUnits="userSpaceOnUse" x1="124.7352" y1="241.5877" x2="1071.2878" y2="1188.1633" gradientTransform="matrix(0.140702,0,0,-0.140702,-0.0000048731,194.981877)">
<stop offset="0" style="stop-color:rgb(25.490196%,87.45098%,81.568627%);stop-opacity:1;"/>
<stop offset="1" style="stop-color:rgb(93.333333%,51.372549%,93.72549%);stop-opacity:1;"/>
</linearGradient>
</defs>
<g id="surface1">
<path style=" stroke:none;fill-rule:nonzero;fill:url(#linear0);" d="M 0.417969 70.878906 C 0.839844 71.628906 1.539062 72.179688 2.367188 72.414062 L 46.222656 84.640625 C 46.507812 84.722656 46.804688 84.765625 47.101562 84.761719 C 48.5625 84.757812 49.839844 83.789062 50.230469 82.382812 L 51.976562 76.117188 L 77.191406 83.148438 L 82.128906 100.710938 C 82.210938 100.945312 82.320312 101.171875 82.453125 101.386719 C 77.078125 108.476562 78.464844 118.578125 85.554688 123.957031 C 86.835938 124.925781 88.253906 125.703125 89.765625 126.253906 L 51.453125 182.246094 L 46.660156 182.246094 C 44.863281 182.246094 43.410156 183.703125 43.410156 185.5 C 43.410156 187.296875 44.863281 188.75 46.660156 188.75 L 59.667969 188.75 C 61.464844 188.75 62.921875 187.296875 62.921875 185.5 C 62.921875 183.703125 61.464844 182.246094 59.667969 182.246094 L 59.34375 182.246094 L 92.191406 134.222656 L 92.191406 182.246094 L 88.941406 182.246094 C 87.144531 182.246094 85.6875 183.703125 85.6875 185.5 C 85.6875 187.296875 87.144531 188.75 88.941406 188.75 L 101.949219 188.75 C 103.746094 188.75 105.199219 187.296875 105.199219 185.5 C 105.199219 183.703125 103.746094 182.246094 101.949219 182.246094 L 98.695312 182.246094 L 98.695312 134.222656 L 131.542969 182.246094 L 131.21875 182.246094 C 129.421875 182.246094 127.96875 183.703125 127.96875 185.5 C 127.96875 187.296875 129.421875 188.75 131.21875 188.75 L 144.226562 188.75 C 146.023438 188.75 147.480469 187.296875 147.480469 185.5 C 147.480469 183.703125 146.023438 182.246094 144.226562 182.246094 L 139.4375 182.246094 L 101.121094 126.246094 C 109.480469 123.191406 113.78125 113.9375 110.726562 105.578125 C 110.195312 104.117188 109.453125 102.742188 108.527344 101.496094 L 111.03125 92.585938 L 127.175781 97.085938 C 127.460938 97.171875 127.753906 97.210938 128.046875 97.210938 C 128.324219 97.210938 128.601562 97.175781 128.871094 97.101562 C 129.140625 97.027344 129.402344 96.917969 129.648438 96.777344 L 144.496094 88.402344 L 158.863281 92.421875 L 157.988281 95.554688 C 157.511719 97.289062 158.523438 99.078125 160.253906 99.558594 C 160.257812 99.558594 160.261719 99.558594 160.265625 99.558594 L 179.0625 104.804688 C 179.347656 104.886719 179.640625 104.925781 179.9375 104.925781 C 181.398438 104.921875 182.675781 103.949219 183.066406 102.542969 L 191.804688 71.214844 C 192.285156 69.488281 191.277344 67.695312 189.546875 67.214844 L 170.746094 61.972656 C 169.019531 61.492188 167.226562 62.503906 166.742188 64.230469 L 165.867188 67.363281 L 151.503906 63.355469 L 143.128906 48.503906 C 142.9375 48.175781 142.691406 47.886719 142.402344 47.648438 C 142.316406 47.574219 142.222656 47.519531 142.125 47.457031 C 141.886719 47.289062 141.628906 47.160156 141.355469 47.0625 C 141.289062 47.039062 141.238281 46.988281 141.171875 46.964844 L 110.992188 38.550781 L 116.476562 34.648438 L 126.867188 37.546875 C 127.152344 37.625 127.445312 37.664062 127.742188 37.664062 C 129.203125 37.664062 130.480469 36.691406 130.875 35.289062 L 134.367188 22.757812 C 134.847656 21.027344 133.835938 19.238281 132.109375 18.753906 L 100.765625 9.996094 C 99.933594 9.761719 99.042969 9.871094 98.292969 10.296875 C 97.542969 10.71875 96.992188 11.421875 96.757812 12.25 L 93.265625 24.789062 C 92.785156 26.515625 93.792969 28.308594 95.523438 28.789062 L 108.414062 32.386719 L 102.925781 36.304688 L 65.964844 25.996094 L 67.714844 19.730469 C 68.195312 18 67.179688 16.207031 65.445312 15.726562 C 65.445312 15.726562 65.441406 15.726562 65.4375 15.726562 L 21.597656 3.492188 C 19.867188 3.011719 18.074219 4.023438 17.589844 5.75 L 0.117188 68.417969 C -0.109375 69.246094 -0.00390625 70.128906 0.417969 70.878906 Z M 95.445312 120.820312 C 90.054688 120.820312 85.6875 116.449219 85.6875 111.0625 C 85.6875 105.671875 90.054688 101.304688 95.445312 101.304688 C 100.832031 101.304688 105.199219 105.671875 105.199219 111.0625 C 105.199219 116.449219 100.832031 120.820312 95.445312 120.820312 Z M 84.535156 85.195312 L 104.769531 90.839844 L 103.089844 96.800781 C 98.34375 94.136719 92.550781 94.136719 87.804688 96.800781 Z M 172.117188 69.109375 L 184.652344 72.601562 L 177.660156 97.667969 L 165.128906 94.171875 Z M 151.574219 70.128906 L 164.105469 73.621094 L 160.609375 86.152344 L 148.082031 82.664062 Z M 141.300781 58.539062 L 145.816406 66.550781 L 141.300781 82.75 L 133.292969 87.28125 L 133.402344 86.882812 Z M 100.402344 23.402344 L 102.152344 17.132812 L 127.214844 24.125 L 125.464844 30.394531 Z M 136.277344 52.347656 L 125.792969 89.953125 L 53.738281 69.851562 L 64.222656 32.261719 Z M 35.515625 14.125 L 60.578125 21.113281 L 44.847656 77.503906 L 19.785156 70.515625 Z M 22.984375 10.628906 L 29.25 12.378906 L 13.527344 68.765625 L 7.253906 67.019531 Z M 92.191406 107.808594 L 98.695312 107.808594 L 98.695312 114.3125 L 92.191406 114.3125 Z M 92.191406 107.808594 "/>
</g>
</svg>
